# AST/ASF file generated using VICON BodyLanguage
# -----------------------------------------------
:version 1.10
:name VICON
:units
  mass 1.0
  length 0.45
  angle deg
:documentation
   .ast/.asf automatically generated from VICON data using
   VICON BodyBuilder and BodyLanguage model FoxedUp or BRILLIANT.MOD
:root
   order TX TY TZ RX RY RZ
   axis XYZ
   position 0 0 0  
   orientation 0 0 0 
:bonedata
  begin
     id 1 
     name lhipjoint
     direction 0.561001 -0.76473 0.316963 
     length 2.4722 
     axis 0 0 0  XYZ
  end
  begin
     id 2 
     name lfemur
     direction 0.34202 -0.939693 0  
     length 7.59403  
     axis 0 0 20  XYZ
    dof rx ry rz
    limits (-160.0 20.0)
           (-70.0 70.0)
           (-60.0 70.0)
  end
  begin
     id 3 
     name ltibia
     direction 0.34202 -0.939693 0   
     length 7.89655   
     axis 0 0 20   XYZ
    dof rx
    limits (-10.0 170.0)
  end
  begin
     id 4 
     name lfoot
     direction 0.061296 -0.168409 0.98381   
     length 2.73287   
     axis -90 7.62852e-016 20   XYZ
    dof rx rz
    limits (-45.0 90.0)
           (-70.0 20.0)
  end
  begin
     id 5 
     name ltoes
     direction 1.53547e-011 -4.21984e-011 1   
     length 1.37057   
     axis -90 7.62852e-016 20   XYZ
    dof rx
    limits (-90.0 20.0)
  end
  begin
     id 6 
     name rhipjoint
     direction -0.559611 -0.765599 0.317323   
     length 2.46939  
     axis 0 0 0  XYZ 
  end
  begin
     id 7 
     name rfemur
     direction -0.34202 -0.939693 0   
     length 7.53712   
     axis 0 0 -20   XYZ
    dof rx ry rz
    limits (-160.0 20.0)
           (-70.0 70.0)
           (-70.0 60.0)
  end
  begin
     id 8 
     name rtibia
     direction -0.34202 -0.939693 0   
     length 8.12549   
     axis 0 0 -20   XYZ
    dof rx
    limits (-10.0 170.0)
 end
 begin
     id 9 
     name rfoot
     direction -0.066984 -0.184037 0.980634   
     length 2.67541  
     axis -90 -7.62852e-016 -20   XYZ
    dof rx rz
    limits (-45.0 90.0)
           (-20.0 70.0)
  end
  begin
     id 10 
     name rtoes
     direction -1.53549e-011 -4.21786e-011 1   
     length 1.34085   
     axis -90 -7.62852e-016 -20   XYZ
    dof rx
    limits (-90.0 20.0)
  end
  begin
     id 11 
     name lowerback
     direction -0.0522728 0.992594 -0.109658   
     length 2.05633   
     axis 0 0 0   XYZ
    dof rx ry rz
    limits (-20.0 45.0)
           (-30.0 30.0)
           (-30.0 30.0)
  end
  begin
     id 12 
     name upperback
     direction 0.00589338 0.999977 0.00335704   
     length 2.05845   
     axis 0 0 0   XYZ
    dof rx ry rz
    limits (-20.0 45.0)
           (-30.0 30.0)
           (-30.0 30.0)
  end
  begin
     id 13 
     name thorax
     direction 0.0292928 0.998059 0.0549487   
     length 2.09281   
     axis 0 0 0   XYZ
    dof rx ry rz
    limits (-20.0 45.0)
           (-30.0 30.0)
           (-30.0 30.0)
  end
  begin
     id 14 
     name lowerneck
     direction 0.0356368 0.980775 0.191858   
     length 1.84767   
     axis 0 0 0   XYZ
    dof rx ry rz
    limits (-20.0 45.0)
           (-30.0 30.0)
           (-30.0 30.0)
  end
  begin
     id 15 
     name upperneck
     direction -0.0227605 0.98931 -0.14404   
     length 1.89582   
     axis 0 0 0   XYZ
    dof rx ry rz
    limits (-20.0 45.0)
           (-30.0 30.0)
           (-30.0 30.0)
  end
  begin
     id 16
     name head
     direction -0.00932985 0.997511 -0.0698904  
     length 1.90213  
     axis 0 0 0   XYZ
    dof rx ry rz
    limits (-20.0 45.0)
           (-30.0 30.0)
           (-30.0 30.0)
  end
  begin
     id 17 
     name lclavicle
     direction 0.873442 0.479511 0.0846686  
     length 3.41193  
     axis 0 0 0   XYZ
    dof ry rz
    limits (-20.0 10.0)
           (0.0 20.0)
  end
  begin
     id 18 
     name lhumerus
     direction 1 -4.4897e-011 -5.62117e-018   
     length 5.59864   
     axis 180 -30 -90   XYZ
    dof rx ry rz
    limits (-60.0 90.0)
           (-90.0 90.0)
           (-90.0 90.0)
  end
  begin
     id 19
     name lradius
     direction 1 -4.48966e-011 -6.26295e-027   
     length 3.59542   
     axis 180 -30 -90   XYZ
    dof rx
    limits (-10.0 170.0)
  end
  begin
     id 20
     name lwrist
     direction 1 -4.48947e-011 -1.74096e-026   
     length 1.79771   
     axis 1.04567e-014 90 90   XYZ
    dof ry
    limits (-180.0 0.0)
 end
  begin
     id 21 
     name lhand
     direction 1 -4.49085e-011 -3.48469e-026   
     length 0.572014   
     axis 2.22196e-014 90 90   XYZ
    dof rx rz
    limits (-90.0 90.0)
           (-45.0 45.0)
  end
  begin
     id 22 
     name lfingers
     direction 1 -4.48884e-011 -6.96135e-026   
     length 0.461173   
     axis 4.44383e-014 90 90   XYZ
    dof rx
    limits (0.0 90.0)
  end
  begin
     id 23
     name lthumb
     direction 0.707107 -6.34976e-011 0.707107   
     length 0.662154   
     axis -90 45 -5.4397e-014   XYZ
    dof rx rz
    limits (-45.0 45.0)
           (-45.0 45.0)
  end
  begin
     id 24 
     name rclavicle
     direction -0.890242 0.443271 0.104786   
     length 3.46753  
     axis 0 0 0   XYZ 
    dof ry rz
    limits (-10.0 20.0)
           (-20.0 0.0)
  end
  begin
     id 25 
     name rhumerus
     direction -1 -4.48963e-011 -5.41723e-018  
     length 5.8094   
     axis 180 30 90   XYZ
    dof rx ry rz
    limits (-90.0 60.0)
           (-90.0 90.0)
           (-90.0 90.0)
  end
  begin
     id 26 
     name rradius
     direction -1 -4.48958e-011 -6.51059e-027   
     length 3.66953   
     axis 180 30 90   XYZ
    dof rx
    limits (-10.0 170.0)
  end
  begin
     id 27 
     name rwrist
     direction -1 -4.48975e-011 -1.74124e-026   
     length 1.83476   
     axis 1.04567e-014 -90 -90   XYZ
    dof ry
    limits (-180.0 0.0)
  end
  begin
     id 28
     name rhand
     direction -1 -4.49013e-011 -3.48326e-026   
     length 0.57843   
     axis 2.22196e-014 -90 -90   XYZ
    dof rx rz
    limits (-90.0 90.0)
           (-45.0 45.0)
  end
  begin
     id 29
     name rfingers
     direction -1 -4.49023e-011 -6.9669e-026   
     length 0.466345   
     axis 4.44383e-014 -90 -90   XYZ
    dof rx
    limits (0.0 90.0)
  end
  begin
     id 30
     name rthumb
     direction -0.707107 -6.34926e-011 0.707107   
     length 0.669581   
     axis -90 -45 5.4397e-014   XYZ
    dof rx rz
    limits (-45.0 45.0)
           (-45.0 45.0)
  end
:hierarchy
  begin
    root lhipjoint rhipjoint lowerback
    lhipjoint lfemur
    lfemur ltibia
    ltibia lfoot
    lfoot ltoes
    rhipjoint rfemur
    rfemur rtibia
    rtibia rfoot
    rfoot rtoes
    lowerback upperback
    upperback thorax
    thorax lowerneck lclavicle rclavicle
    lowerneck upperneck
    upperneck head
    lclavicle lhumerus
    lhumerus lradius
    lradius lwrist
    lwrist lhand lthumb
    lhand lfingers
    rclavicle rhumerus
    rhumerus rradius
    rradius rwrist
    rwrist rhand rthumb
    rhand rfingers
  end

#!OML:ASF H:\SkateBoarding\Project 1\Capture day 1\Session 1\Skater.ASF
:FULLY-SPECIFIED
:DEGREES
49
root 1.70127 19.5484 -22.3533 0.985685 53.1686 -4.05046
lowerback 3.91195 -1.9064 -4.49299
upperback -2.68161 -2.83069 -0.45408
thorax -4.78183 -1.25712 2.26658
lowerneck -13.8588 -4.75214 -1.0969
upperneck 40.286 -7.58841 3.43899
head 17.2776 -2.51903 0.451638
rclavicle -3.66812e-014 -8.74653e-015
rhumerus -31.3997 5.51646 -95.212
rradius 35.0517
rwrist -8.12006
rhand -39.9639 -1.90859
rfingers 7.12502
rthumb -12.933 -31.4878
lclavicle -3.66812e-014 -8.74653e-015
lhumerus -40.2156 5.73875 80.953
lradius 27.5894
lwrist 23.4915
lhand -27.1009 26.5551
lfingers 7.12502
lthumb -0.517497 56.5342
rfemur -22.3432 -4.0374 23.6203
rtibia 42.2832
rfoot -30.8494 -4.28054
rtoes -13.2256
lfemur -6.05637 0.441048 -16.4057
ltibia 34.785
lfoot -41.0005 3.80398
ltoes -12.7556
50
root 1.71126 19.5451 -22.0508 1.05799 52.3647 -3.96674
lowerback 3.904 -1.9163 -4.50639
upperback -2.67097 -2.8445 -0.463734
thorax -4.7651 -1.26435 2.26447
lowerneck -13.9216 -4.6645 -0.971504
upperneck 40.2368 -7.46819 3.33519
head 17.247 -2.47224 0.401002
rclavicle -7.32855e-014 -4.77083e-015
rhumerus -31.5274 5.38335 -95.0601
rradius 34.8656
rwrist -8.14239
rhand -39.8967 -2.09215
rfingers 7.12502
rthumb -12.8682 -31.6754
lclavicle -7.32855e-014 -4.77083e-015
lhumerus -40.2002 5.46296 81.4508
lradius 27.79
lwrist 23.3618
lhand -26.8374 25.884
lfingers 7.12502
lthumb -0.263088 55.8636
rfemur -22.3862 -3.78532 23.6042
rtibia 42.3358
rfoot -30.4694 -4.02952
rtoes -13.5338
lfemur -5.85427 0.807962 -16.5227
ltibia 34.7727
lfoot -41.3872 3.91083
ltoes -12.5354
51
root 1.7221 19.5417 -21.7504 1.12682 51.575 -3.89178
lowerback 3.89343 -1.9305 -4.50197
upperback -2.65779 -2.8624 -0.463372
thorax -4.7442 -1.27421 2.26292
lowerneck -13.9893 -4.56783 -0.849919
upperneck 40.1847 -7.33097 3.2276
head 17.2159 -2.41951 0.35245
rclavicle 1.27874e-014 -1.59028e-015
rhumerus -31.6405 5.24528 -94.865
rradius 34.6785
rwrist -8.15986
rhand -39.7812 -2.26853
rfingers 7.12502
rthumb -12.7568 -31.8588
lclavicle 1.27874e-014 -1.59028e-015
lhumerus -40.133 5.18252 81.9728
lradius 27.9821
lwrist 23.2222
lhand -26.4842 25.2167
lfingers 7.12502
lthumb 0.0781207 55.1964
rfemur -22.424 -3.54087 23.5866
rtibia 42.3736
rfoot -30.0967 -3.76285
rtoes -13.8362
lfemur -5.66394 1.11916 -16.6499
ltibia 34.7721
lfoot -41.8201 4.02212
ltoes -12.3202
52
root 1.73347 19.5383 -21.4512 1.2008 50.8022 -3.82049
lowerback 3.8792 -1.94911 -4.48334
upperback -2.6475 -2.88505 -0.458593
thorax -4.72431 -1.28676 2.25826
lowerneck -14.0575 -4.46244 -0.738789
upperneck 40.1332 -7.18011 3.12882
head 17.1865 -2.36132 0.312382
rclavicle -5.03057e-014 7.95139e-016
rhumerus -31.7465 5.08029 -94.6314
rradius 34.4928
rwrist -8.17083
rhand -39.7245 -2.4129
rfingers 7.12502
rthumb -12.7022 -32.0066
lclavicle -5.03057e-014 7.95139e-016
lhumerus -40.028 4.8581 82.5167
lradius 28.1766
lwrist 23.1042
lhand -26.0913 24.59
lfingers 7.12502
lthumb 0.457558 54.5692
rfemur -22.4597 -3.30378 23.5685
rtibia 42.3985
rfoot -29.7337 -3.47182
rtoes -14.1169
lfemur -5.4948 1.39224 -16.783
ltibia 34.7947
lfoot -42.2789 4.12556
ltoes -12.0634
53
root 1.74535 19.5348 -21.1535 1.28717 50.0577 -3.75293
lowerback 3.86485 -1.97711 -4.43852
upperback -2.64761 -2.91901 -0.454388
thorax -4.71565 -1.30536 2.23945
lowerneck -14.1266 -4.34725 -0.627786
upperneck 40.0894 -7.01505 3.03284
head 17.1621 -2.29643 0.276386
rclavicle -3.15773e-014 -9.54166e-015
rhumerus -31.8515 4.89744 -94.3702
rradius 34.3029
rwrist -8.15238
rhand -39.7291 -2.56337
rfingers 7.12502
rthumb -12.7066 -32.1568
lclavicle -3.15773e-014 -9.54166e-015
lhumerus -39.9032 4.47005 83.0805
lradius 28.3891
lwrist 23.025
lhand -25.6849 24.0095
lfingers 7.12502
lthumb 0.85009 53.9876
rfemur -22.5024 -3.08365 23.5501
rtibia 42.4161
rfoot -29.3865 -3.15001
rtoes -14.3473
lfemur -5.36272 1.62191 -16.9208
ltibia 34.8522
lfoot -42.7548 4.22248
ltoes -11.8272
54
root 1.75739 19.5311 -20.8564 1.38886 49.3351 -3.68529
lowerback 3.84541 -2.00859 -4.38318
upperback -2.65896 -2.95706 -0.450753
thorax -4.71614 -1.32592 2.21452
lowerneck -14.1882 -4.23063 -0.517461
upperneck 40.0525 -6.849 2.94134
head 17.1406 -2.23022 0.243074
rclavicle -1.35282e-014 2.38542e-015
rhumerus -31.9587 4.67914 -94.0771
rradius 34.1105
rwrist -8.11299
rhand -39.7664 -2.71722
rfingers 7.12502
rthumb -12.7426 -32.3084
lclavicle -1.35282e-014 2.38542e-015
lhumerus -39.7596 4.01797 83.6611
lradius 28.6145
lwrist 22.9695
lhand -25.2835 23.4765
lfingers 7.12502
lthumb 1.23774 53.4526
rfemur -22.5534 -2.89464 23.5332
rtibia 42.431
rfoot -29.047 -2.80001
rtoes -14.5856
lfemur -5.27067 1.831 -17.0569
ltibia 34.9554
lfoot -43.229 4.30943
ltoes -11.6215
55
root 1.76966 19.5272 -20.5602 1.52305 48.6339 -3.61936
lowerback 3.81045 -2.04704 -4.30221
upperback -2.68945 -3.00276 -0.451521
thorax -4.72879 -1.3506 2.17108
lowerneck -14.2455 -4.11125 -0.417608
upperneck 40.0271 -6.68037 2.8627
head 17.1262 -2.16218 0.218151
rclavicle 1.37121e-013 -6.36111e-015
rhumerus -32.0666 4.4359 -93.7635
rradius 33.9092
rwrist -8.06699
rhand -39.8249 -2.88733
rfingers 7.12502
rthumb -12.799 -32.475
lclavicle 1.37121e-013 -6.36111e-015
lhumerus -39.6098 3.49073 84.251
lradius 28.866
lwrist 22.9632
lhand -24.9066 22.9865
lfingers 7.12502
lthumb 1.60181 52.9602
rfemur -22.638 -2.74874 23.52
rtibia 42.448
rfoot -28.6975 -2.41653
rtoes -14.8066
lfemur -5.24704 2.02186 -17.1892
ltibia 35.1185
lfoot -43.6921 4.36522
ltoes -11.4347
56
root 1.781 19.5232 -20.2641 1.6561 47.9529 -3.55258
lowerback 3.78552 -2.0887 -4.23162
upperback -2.72141 -3.05378 -0.447385
thorax -4.74772 -1.37734 2.13934
lowerneck -14.3033 -3.99092 -0.330979
upperneck 40.0081 -6.50937 2.79275
head 17.1171 -2.09357 0.199988
rclavicle 3.02898e-014 1.74931e-014
rhumerus -32.1611 4.16795 -93.421
rradius 33.6878
rwrist -7.98943
rhand -39.9464 -3.06363
rfingers 7.12502
rthumb -12.9161 -32.6439
lclavicle 3.02898e-014 1.74931e-014
lhumerus -39.4515 2.88938 84.8507
lradius 29.1495
lwrist 22.995
lhand -24.5534 22.5096
lfingers 7.12502
lthumb 1.94293 52.4805
rfemur -22.7152 -2.62984 23.5138
rtibia 42.4693
rfoot -28.358 -2.015
rtoes -15.0197
lfemur -5.25793 2.21885 -17.3039
ltibia 35.3536
lfoot -44.1132 4.37291
ltoes -11.2514
57
root 1.79195 19.5191 -19.9693 1.78565 47.2811 -3.48799
lowerback 3.77847 -2.12879 -4.1518
upperback -2.75831 -3.10324 -0.442309
thorax -4.78262 -1.40317 2.10427
lowerneck -14.355 -3.87158 -0.238411
upperneck 39.9925 -6.33823 2.71483
head 17.108 -2.02495 0.177448
rclavicle -5.59486e-014 1.59028e-015
rhumerus -32.2442 3.86734 -93.0479
rradius 33.4497
rwrist -7.88958
rhand -40.0665 -3.29915
rfingers 7.12502
rthumb -13.0319 -32.8721
lclavicle -5.59486e-014 1.59028e-015
lhumerus -39.2848 2.23127 85.4508
lradius 29.46
lwrist 23.0494
lhand -24.2184 22.0343
lfingers 7.12502
lthumb 2.26645 52.002
rfemur -22.7909 -2.53748 23.5127
rtibia 42.4952
rfoot -28.0132 -1.60308
rtoes -15.2439
lfemur -5.31106 2.41387 -17.404
ltibia 35.6736
lfoot -44.4979 4.29245
ltoes -10.9848
58
root 1.80247 19.5151 -19.6761 1.91178 46.6155 -3.42835
lowerback 3.77716 -2.169 -4.06169
upperback -2.79015 -3.15231 -0.434292
thorax -4.81599 -1.42928 2.06665
lowerneck -14.4149 -3.74901 -0.15621
upperneck 39.9762 -6.1613 2.64315
head 17.1019 -1.95451 0.160457
rclavicle -4.12509e-014 -9.54166e-015
rhumerus -32.2935 3.55306 -92.6519
rradius 33.1846
rwrist -7.80821
rhand -40.1835 -3.548
rfingers 7.12502
rthumb -13.1446 -33.1137
lclavicle -4.12509e-014 -9.54166e-015
lhumerus -39.0912 1.55048 86.0337
lradius 29.791
lwrist 23.1033
lhand -23.8997 21.5512
lfingers 7.12502
lthumb 2.57421 51.5154
rfemur -22.8675 -2.45277 23.5163
rtibia 42.5226
rfoot -27.6685 -1.18605
rtoes -15.4483
lfemur -5.41476 2.60781 -17.4864
ltibia 36.0877
lfoot -44.8396 4.07226
ltoes -10.5373
59
root 1.8127 19.5115 -19.3849 2.02142 45.9483 -3.37531
lowerback 3.79103 -2.20317 -3.96508
upperback -2.81129 -3.19316 -0.420154
thorax -4.84745 -1.45169 2.03163
lowerneck -14.4818 -3.62729 -0.0875776
upperneck 39.9536 -5.98319 2.57671
head 17.0953 -1.88494 0.148303
rclavicle -2.04904e-014 6.36111e-015
rhumerus -32.3068 3.23187 -92.2312
rradius 32.8939
rwrist -7.74841
rhand -40.2964 -3.83018
rfingers 7.12502
rthumb -13.2535 -33.3888
lclavicle -2.04904e-014 6.36111e-015
lhumerus -38.8693 0.848134 86.6044
lradius 30.1434
lwrist 23.1271
lhand -23.6115 21.0631
lfingers 7.12502
lthumb 2.85257 51.0238
rfemur -22.9307 -2.34703 23.5245
rtibia 42.5462
rfoot -27.3317 -0.789556
rtoes -15.6433
lfemur -5.56264 2.8054 -17.5499
ltibia 36.6054
lfoot -45.1215 3.71558
ltoes -9.91722
